<svg xmlns="http://www.w3.org/2000/svg" viewBox="0 0 1600 1000"><defs><linearGradient id="a"><stop stop-color="#f2a238"/><stop offset="1" stop-color="#71370c"/></linearGradient><linearGradient id="b" x2="1" y2="1"><stop stop-color="#192531"/><stop offset="1" stop-color="#030508"/></linearGradient></defs><rect width="1600" height="1000" fill="#030508"/><path d="M0 0h700l220 230-280 290L260 720 0 630Z" fill="url(#b)"/><path d="m700 0 900 0v670l-370 210-310-650Z" fill="#0b1219"/><path d="m640 520 280-290 310 650-610 120-360-280Z" fill="#14212a"/><path d="m920 230 310 650-590-360Z" fill="url(#a)"/><g fill="none" stroke="#08d9f5" stroke-width="4"><path d="M0 630 260 720l360-200 300-290L700 0M640 520l-20 480 610-120 370-210"/></g><path d="m920 230 310 650" stroke="#f8d19a" stroke-width="5"/><circle cx="620" cy="520" r="13" fill="#08d9f5"/></svg>
