<?xml version="1.0" encoding="UTF-8"?>
<svg xmlns="http://www.w3.org/2000/svg" viewBox="0 0 200 200" width="200" height="200" fill="none">

  <defs>
    <linearGradient id="gNavy" x1="0" y1="0" x2="1" y2="1">
      <stop offset="0%" stop-color="#1E3A8A"/>
      <stop offset="100%" stop-color="#172554"/>
    </linearGradient>
    <linearGradient id="gCobalt" x1="1" y1="0" x2="0" y2="1">
      <stop offset="0%" stop-color="#3B82F6"/>
      <stop offset="100%" stop-color="#1D4ED8"/>
    </linearGradient>
    <linearGradient id="gBlue" x1="0" y1="0" x2="0" y2="1">
      <stop offset="0%" stop-color="#60A5FA"/>
      <stop offset="100%" stop-color="#2563EB"/>
    </linearGradient>
    <linearGradient id="gSky" x1="0" y1="0" x2="1" y2="1">
      <stop offset="0%" stop-color="#7DD3FC"/>
      <stop offset="100%" stop-color="#0EA5E9"/>
    </linearGradient>
    <linearGradient id="gCyan" x1="0" y1="1" x2="1" y2="0">
      <stop offset="0%" stop-color="#22D3EE"/>
      <stop offset="100%" stop-color="#38BDF8"/>
    </linearGradient>
    <linearGradient id="gPurple" x1="0" y1="0" x2="1" y2="1">
      <stop offset="0%" stop-color="#A78BFA"/>
      <stop offset="100%" stop-color="#6D28D9"/>
    </linearGradient>
    <linearGradient id="gAmber" x1="0" y1="0" x2="1" y2="1">
      <stop offset="0%" stop-color="#FCD34D"/>
      <stop offset="100%" stop-color="#F59E0B"/>
    </linearGradient>
    <linearGradient id="gOrange" x1="0.2" y1="0" x2="0.8" y2="1">
      <stop offset="0%" stop-color="#FDBA74"/>
      <stop offset="55%" stop-color="#F59E0B"/>
      <stop offset="100%" stop-color="#D97706"/>
    </linearGradient>
  </defs>

  <g transform="translate(10,20) rotate(28 90 80)">
    <polygon points="20,20 160,8 170,70 40,90" fill="url(#gSky)"/>
    <polygon points="20,20 40,90 8,150 4,70" fill="url(#gCyan)"/>
    <polygon points="40,90 170,70 150,160 8,150" fill="#0284C7"/>
  </g>

</svg>
